<svg width="101" height="100" viewBox="0 0 101 100" fill="none" xmlns="http://www.w3.org/2000/svg">
<rect x="0.5" width="100" height="100" rx="50" fill="#DCE4EB"/>
<path d="M50.5002 33.3335C41.3286 33.3335 33.8335 40.7793 33.8335 50.0002C33.8335 59.1718 41.2793 66.6668 50.5002 66.6668C59.6718 66.6668 67.1668 59.2211 67.1668 50.0002C67.1668 40.8286 59.6718 33.3335 50.5002 33.3335ZM50.5002 64.9903C46.7033 64.9903 43.2516 63.5603 40.6382 61.2428C45.2733 59.7635 46.8512 57.939 47.3937 56.7556C48.2319 57.1501 49.2181 57.3473 50.2536 57.3473H50.3029H50.3522H50.4015H50.4509C51.585 57.3473 52.6205 57.1008 53.5081 56.657C54.0012 57.7911 55.5298 59.7142 60.3621 61.2428C57.7487 63.6096 54.297 64.9903 50.5002 64.9903ZM54.2477 54.1422C53.3108 55.227 52.0288 55.7201 50.4015 55.7694C50.4015 55.7694 50.4015 55.7694 50.3522 55.7694C50.3522 55.7694 50.3522 55.7694 50.3029 55.7694C48.6757 55.7694 47.3937 55.227 46.4568 54.1422C44.0899 51.4794 44.6323 46.4992 44.6323 46.4499V46.4006C44.7309 43.8858 45.6678 42.1106 47.3937 41.1737C48.5771 40.5327 49.8098 40.4834 50.2043 40.4834C50.2536 40.4834 50.3029 40.4834 50.3029 40.4834H50.3522C50.5002 40.4834 51.9301 40.4341 53.3108 41.1737C55.0367 42.1106 55.9242 43.8365 56.0722 46.4006V46.4499C56.0722 46.4499 56.6146 51.4794 54.2477 54.1422ZM61.6935 59.9607C55.4804 58.1856 54.9873 55.9666 54.938 55.7201C55.1353 55.5722 55.2832 55.3749 55.4804 55.1777C58.2418 52.0712 57.7487 46.6964 57.6994 46.2033C57.4035 40.1382 52.9656 38.6589 50.3522 38.7576C47.7388 38.6589 43.301 40.1382 43.0051 46.2033C42.9558 46.6964 42.4627 52.0219 45.224 55.1777C45.4706 55.4242 45.7171 55.6708 45.9637 55.868C45.7664 56.4104 44.6816 58.3335 39.3069 59.9114C36.94 57.2487 35.51 53.7477 35.51 49.9508C35.51 41.6668 42.2161 34.9607 50.5002 34.9607C58.7842 34.9607 65.4903 41.6668 65.4903 49.9508C65.4903 53.8463 64.0603 57.298 61.6935 59.9607Z" fill="#193048" fill-opacity="0.4"/>
</svg>
