<svg width="40" height="40" viewBox="0 0 40 40" fill="none" xmlns="http://www.w3.org/2000/svg">
<rect width="40" height="40" rx="20" fill="#DCE4EB"/>
<path d="M19.5003 11.6665C14.9145 11.6665 11.167 15.3894 11.167 19.9998C11.167 24.5856 14.8899 28.3332 19.5003 28.3332C24.0861 28.3332 27.8337 24.6103 27.8337 19.9998C27.8337 15.414 24.0861 11.6665 19.5003 11.6665ZM19.5003 27.4949C17.6019 27.4949 15.8761 26.7799 14.5694 25.6211C16.8869 24.8815 17.6759 23.9693 17.9471 23.3776C18.3662 23.5748 18.8593 23.6734 19.3771 23.6734H19.4017H19.4264H19.451H19.4757C20.0427 23.6734 20.5605 23.5501 21.0043 23.3282C21.2508 23.8953 22.0151 24.8568 24.4313 25.6211C23.1246 26.8046 21.3987 27.4949 19.5003 27.4949ZM21.3741 22.0708C20.9057 22.6132 20.2646 22.8598 19.451 22.8845C19.451 22.8845 19.451 22.8845 19.4264 22.8845C19.4264 22.8845 19.4264 22.8845 19.4017 22.8845C18.5881 22.8845 17.9471 22.6132 17.4786 22.0708C16.2952 20.7395 16.5664 18.2493 16.5664 18.2247V18.2C16.6157 16.9426 17.0842 16.0551 17.9471 15.5866C18.5388 15.2661 19.1552 15.2415 19.3524 15.2415C19.3771 15.2415 19.4017 15.2415 19.4017 15.2415H19.4264C19.5003 15.2415 20.2153 15.2168 20.9057 15.5866C21.7686 16.0551 22.2124 16.918 22.2863 18.2V18.2247C22.2863 18.2247 22.5575 20.7395 21.3741 22.0708ZM25.097 24.9801C21.9905 24.0925 21.7439 22.9831 21.7193 22.8598C21.8179 22.7858 21.8918 22.6872 21.9905 22.5886C23.3711 21.0353 23.1246 18.348 23.0999 18.1014C22.952 15.0689 20.7331 14.3292 19.4264 14.3785C18.1197 14.3292 15.9007 15.0689 15.7528 18.1014C15.7281 18.348 15.4816 21.0107 16.8623 22.5886C16.9855 22.7119 17.1088 22.8351 17.2321 22.9338C17.1335 23.205 16.5911 24.1665 13.9037 24.9555C12.7202 23.6241 12.0053 21.8736 12.0053 19.9752C12.0053 15.8332 15.3583 12.4801 19.5003 12.4801C23.6423 12.4801 26.9954 15.8332 26.9954 19.9752C26.9954 21.9229 26.2804 23.6488 25.097 24.9801Z" fill="#193048" fill-opacity="0.4"/>
</svg>
